Coordinates
version=1
nRows=9
nColumns=63
inDegrees=yes

Units are S.I. units (second, meters, Newtons, ...)
If the header above contains a line with 'inDegrees', this indicates whether rotational values are in degrees (yes) or radians (no).

endheader
time	pelvis_tilt	pelvis_list	pelvis_rotation	pelvis_tx	pelvis_ty	pelvis_tz	hip_flexion_r	hip_adduction_r	hip_rotation_r	knee_angle_r	knee_angle_r_beta	ankle_angle_r	subtalar_angle_r	mtp_angle_r	hip_flexion_l	hip_adduction_l	hip_rotation_l	knee_angle_l	knee_angle_l_beta	ankle_angle_l	subtalar_angle_l	mtp_angle_l	L5_S1_Flex_Ext	L5_S1_Lat_Bending	L5_S1_axial_rotation	L4_L5_Flex_Ext	L4_L5_Lat_Bending	L4_L5_axial_rotation	L3_L4_Flex_Ext	L3_L4_Lat_Bending	L3_L4_axial_rotation	L2_L3_Flex_Ext	L2_L3_Lat_Bending	L2_L3_axial_rotation	L1_L2_Flex_Ext	L1_L2_Lat_Bending	L1_L2_axial_rotation	L1_T12_Flex_Ext	L1_T12_Lat_Bending	L1_T12_axial_rotation	Abs_r3	Abs_r2	Abs_r1	Abs_t1	Abs_t2	neck_flexion	neck_bending	neck_rotation	arm_flex_r	arm_add_r	arm_rot_r	elbow_flex_r	pro_sup_r	wrist_flex_r	wrist_dev_r	arm_flex_l	arm_add_l	arm_rot_l	elbow_flex_l	pro_sup_l	wrist_flex_l	wrist_dev_l
      1.49152542	      2.24783201	     -4.17316513	     95.72830978	      0.32882594	      1.07298664	      0.39013827	     -1.92899814	     -1.81209841	    -15.49849332	      7.24439259	      0.12643850	     33.33180080	     15.60918930	      0.00000000	      0.68687594	      3.01790763	      2.20855561	      9.96716302	      0.17395981	     27.11600994	     -1.61184080	      0.00000000	      0.04610576	     -0.75033743	     -2.07983085	      0.08562301	     -0.99794878	     -2.20982027	      0.07574716	     -1.82437042	     -2.20982027	      0.05269428	     -1.82437042	     -1.81985199	      0.04281381	     -1.53008808	     -1.68986256	      0.02634483	     -1.16227267	     -1.55987314	      0.32932885	     -8.48796703	    -11.56739522	      0.00000000	      0.00000000	     22.90074476	     11.91991891	     -7.31944314	     40.26433106	     11.78343540	     33.72641501	    145.39125470	     87.14422294	    -13.12981743	     19.07841515	     15.79640585	     -6.59811370	    157.99294015	      7.52911941	     12.13298256	    -14.04424914	     -4.63087513
      1.50847458	      2.10460325	     -4.26169400	     95.31705237	      0.32886455	      1.07293317	      0.39047218	     -1.68905903	     -2.07219632	    -15.46041739	      7.49312045	      0.13077962	     33.42123398	     15.88004971	      0.00000000	      0.63237735	      3.41222239	      4.19808491	      9.63750902	      0.16820626	     26.11670750	     -5.14488836	      0.00000000	      0.05934309	     -0.75752669	     -1.99656759	      0.11020605	     -1.00751050	     -2.12135306	      0.09749476	     -1.84185039	     -2.12135306	      0.06782322	     -1.84185039	     -1.74699664	      0.05510599	     -1.54474842	     -1.62221117	      0.03390864	     -1.17340884	     -1.49742569	      0.42388175	     -8.56929340	    -11.10430996	      0.00000000	      0.00000000	     22.96921831	     11.93930195	     -7.16944071	     40.18602809	     11.77098408	     33.61541750	    145.24817057	     87.15847228	    -12.43334528	     18.54022593	     15.97140169	     -6.01961052	    165.34537994	      6.70145711	      9.35815839	    -13.74818929	     -4.10606192
      1.52542373	      2.02893512	     -4.31631927	     95.08685334	      0.32878854	      1.07284924	      0.39103654	     -1.46887418	     -2.24988537	    -15.62842980	      7.77607612	      0.13571813	     33.53918759	     16.23511332	      0.00000000	      0.78486036	      3.49664104	      3.53101625	      9.79992535	      0.17104096	     26.21873321	     -4.58292966	      0.00000000	      0.06024466	     -0.75866404	     -1.95028565	      0.11188036	     -1.00902318	     -2.07217851	      0.09897595	     -1.84461575	     -2.07217851	      0.06885362	     -1.84461575	     -1.70649995	      0.05594319	     -1.54706771	     -1.58460709	      0.03442380	     -1.17517060	     -1.46271424	      0.43032159	     -8.58215937	    -10.84690372	      0.00000000	      0.00000000	     23.05232027	     11.92435715	     -7.08099652	     40.28447914	     11.68802060	     33.60818029	    145.16270575	     87.24882836	    -12.31581876	     18.27422681	     16.19123205	     -5.57655849	    169.47120588	      5.97041346	     10.58716613	    -13.68001079	     -3.50707428
      1.54237288	      1.99061934	     -4.39844989	     94.73649280	      0.32898799	      1.07270636	      0.39147992	     -1.18698520	     -2.36938557	    -15.52018426	      8.09142167	      0.14122195	     33.60163455	     16.33902438	      0.00000000	      0.95760837	      3.53274044	      2.81523035	      9.97206753	      0.17404541	     26.37515804	     -3.98712359	      0.00000000	      0.06933912	     -0.75575933	     -1.88434020	      0.12876967	     -1.00515991	     -2.00211146	      0.11391724	     -1.83755324	     -2.00211146	      0.07924768	     -1.83755324	     -1.64879767	      0.06438830	     -1.54114443	     -1.53102641	      0.03962037	     -1.17067120	     -1.41325515	      0.49528238	     -8.54930070	    -10.48013487	      0.00000000	      0.00000000	     23.05754175	     11.90972421	     -6.91959827	     40.39975848	     11.58219394	     33.67777113	    145.09738516	     87.33907893	    -12.42834099	     18.05356165	     16.35706056	     -5.06865003	    175.11077611	      5.03158991	     11.19252783	    -13.24057061	     -2.90345263
      1.55932203	      1.90292427	     -4.45576153	     94.43071453	      0.32921157	      1.07256762	      0.39202541	     -0.90799181	     -2.55033407	    -15.48123714	      8.51983911	      0.14869924	     33.66018331	     16.44176304	      0.00000000	      1.09276223	      3.60478614	      2.09747871	     10.12729425	      0.17675463	     26.55953291	     -3.26179608	      0.00000000	      0.07229468	     -0.76093558	     -1.82491479	      0.13425845	     -1.01204432	     -1.93897196	      0.11877293	     -1.85013876	     -1.93897196	      0.08262559	     -1.85013876	     -1.59680044	      0.06713284	     -1.55169983	     -1.48274327	      0.04130918	     -1.17868921	     -1.36868609	      0.51639368	     -8.60785544	    -10.14962859	      0.00000000	      0.00000000	     23.13196283	     11.88836381	     -6.80920312	     40.46656537	     11.52379801	     33.65439201	    145.03374157	     87.36178070	    -12.23885466	     17.80483820	     16.58537310	     -4.63540435	    179.94804866	      4.18816544	     12.74642969	    -12.37763219	     -2.50089095
      1.57627119	      1.83713747	     -4.51103628	     94.16024433	      0.32942093	      1.07236293	      0.39246316	     -0.67520289	     -2.69598783	    -15.54780196	      8.94307409	      0.15608609	     33.56356825	     16.47515699	      0.00000000	      1.23927131	      3.64351149	      1.37871685	     10.33509839	      0.18038150	     26.80875126	     -2.46440974	      0.00000000	      0.07628486	     -0.76565935	     -1.77600518	      0.14166862	     -1.01832693	     -1.88700551	      0.12532840	     -1.86162414	     -1.88700551	      0.08718597	     -1.86162414	     -1.55400454	      0.07083812	     -1.56133254	     -1.44300421	      0.04358917	     -1.18600633	     -1.33200389	      0.54489514	     -8.66129167	     -9.87760803	      0.00000000	      0.00000000	     23.19947183	     11.84487574	     -6.83619954	     40.52510127	     11.49792350	     33.60239285	    145.08627899	     87.39335041	    -11.93405017	     17.90623164	     16.76578496	     -4.26107849	    183.45584363	      3.47953436	     15.06680876	    -11.21222144	     -2.44753989
      1.59322034	      1.74883507	     -4.56083023	     93.96391912	      0.32962672	      1.07211227	      0.39294914	     -0.48205157	     -2.85607414	    -15.74258354	      9.39101583	      0.16390415	     33.37142126	     16.47434916	      0.00000000	      1.37993030	      3.73254743	      1.13466817	     10.54339724	      0.18401700	     26.96459012	     -2.30224250	      0.00000000	      0.07849402	     -0.77377961	     -1.75090492	      0.14577124	     -1.02912689	     -1.86033648	      0.12895782	     -1.88136775	     -1.86033648	      0.08971081	     -1.88136775	     -1.53204181	      0.07288954	     -1.57789139	     -1.42261025	      0.04485148	     -1.19858462	     -1.31317869	      0.56067492	     -8.75314974	     -9.73800790	      0.00000000	      0.00000000	     23.28367377	     11.90190244	     -6.65717123	     40.58337040	     11.48880807	     33.68690475	    145.13809795	     87.48138936	    -11.76982178	     17.93971121	     16.93385458	     -3.98459087	    185.81298187	      2.98548685	     17.37337748	     -9.88807109	     -2.91699097
      1.61016949	      1.67829104	     -4.59226871	     93.79013222	      0.32971392	      1.07180579	      0.39335606	     -0.33087171	     -3.00536051	    -16.04604587	      9.85281111	      0.17196399	     33.11800792	     16.46974685	      0.00000000	      1.48828442	      3.79787339	      0.86658919	     10.74539583	      0.18754254	     27.14434852	     -2.11094630	      0.00000000	      0.07837612	     -0.77887173	     -1.72871825	      0.14555229	     -1.03589939	     -1.83676314	      0.12876413	     -1.89374871	     -1.83676314	      0.08957607	     -1.89374871	     -1.51262847	      0.07278006	     -1.58827522	     -1.40458358	      0.04478411	     -1.20647230	     -1.29653869	      0.55983279	     -8.81075273	     -9.61461231	      0.00000000	      0.00000000	     23.37860814	     11.88962124	     -6.54266043	     40.68226593	     11.50209757	     33.84482486	    145.27154125	     87.59361426	    -11.65114646	     18.08416781	     17.10211447	     -3.70298748	    187.67810441	      2.75975257	     19.17949544	     -8.71095955	     -3.43989572
      1.62711864	      1.61155580	     -4.61251757	     93.59426035	      0.32994937	      1.07156880	      0.39366232	     -0.22902263	     -3.14218470	    -16.45457882	     10.24851166	      0.17887027	     32.76495538	     16.58298176	      0.00000000	      1.57079866	      3.83479028	      0.46107205	     10.92584131	      0.19069190	     27.29961533	     -1.78284280	      0.00000000	      0.08014680	     -0.78575241	     -1.70129873	      0.14884061	     -1.04505071	     -1.80762990	      0.13167317	     -1.91047842	     -1.80762990	      0.09159977	     -1.91047842	     -1.48863639	      0.07442431	     -1.60230632	     -1.38230522	      0.04579588	     -1.21713049	     -1.27597405	      0.57248054	     -8.88858846	     -9.46211313	      0.00000000	      0.00000000	     23.42333338	     11.91719470	     -6.51591559	     40.73617576	     11.52546493	     34.07032535	    145.46595134	     87.73351144	    -11.74886661	     18.39639392	     17.15162283	     -3.51452906	    189.22426878	      2.44158126	     20.65681810	     -7.71203417	     -3.86461869
